<?xml version="1.0" encoding="utf-8"?>
<!-- Generator: Adobe Illustrator 22.0.1, SVG Export Plug-In . SVG Version: 6.00 Build 0)  -->
<svg version="1.1" id="Layer_1" xmlns="http://www.w3.org/2000/svg" xmlns:xlink="http://www.w3.org/1999/xlink" x="0px" y="0px"
	 viewBox="0 0 1536 1136.2" style="enable-background:new 0 0 1536 1136.2;" xml:space="preserve">
<style type="text/css">
	.st0{fill:#F7F5ED;}
	.st1{fill:#E75A4D;}
	.st2{fill:#B7B6AD;}
	.st3{fill:none;}
</style>
<g id="Layer_x0020_1">
	<g id="_316006816">
		<polygon id="_316007416" class="st0" points="771,661.5 1391,1124.4 145,1124.4 765,661.5 768,663.7 		"/>
		<path id="_316007536" class="st0" d="M145,1132.9l623.7-452.8l-3.4-2.4l-0.4,0.3l-1.2-0.8c-57.7-40.6-115.1-81.9-172.4-123.6
			c0,0,0,0,0,0c-149-108.5-297.1-220-446.4-331.1L145,1132.9L145,1132.9L145,1132.9z"/>
		<g>
			<path id="_316007272" class="st1" d="M1391,1124.4h43.8c55.7,0,101.2-45.5,101.2-101.2v-922C1536,45.5,1490.5,0,1434.8,0H1391
				V1124.4L1391,1124.4z"/>
			<path id="_316007032" class="st1" d="M145,1133h-43.8C45.5,1133,0,1087.4,0,1031.7V101.2C0,45.5,45.5,0,101.2,0H145V1133
				L145,1133z"/>
			<polygon id="_316007080" class="st0" points="771,462.9 1391,0 145,0 765,462.9 768,460.7 			"/>
			<path id="_316006984" class="st2" d="M768.7,680.1l622.4,444.3v-902c-103,76.7-205.4,153.5-308,229.5
				C986,523.8,888.8,594.8,790.9,664l0,0L768.7,680.1L768.7,680.1z"/>
			<polygon id="_316006120" class="st2" points="774.1,680.7 147.3,1136.2 142.6,1129.7 769.5,674.3 			"/>
			<path id="_316006720" class="st1" d="M768.7,680.1C532.4,539.4,230.9,285,0,115L68.3,7.9L143,1.8l2-1.8l620,462.9l3-2.2l3,2.2
				L1391,0l2,1.8l74.6,6.1L1536,115C1286.2,298.8,1025.5,511.6,768.7,680.1L768.7,680.1z"/>
		</g>
	</g>
</g>
<rect x="-253.7" y="-309.9" class="st3" width="2048" height="2048"/>
</svg>
